<mxfile host="app.diagrams.net" agent="Mozilla/5.0 (Windows NT 10.0; Win64; x64) AppleWebKit/537.36 (KHTML, like Gecko) Chrome/138.0.0.0 Safari/537.36" version="28.0.1">
  <diagram name="Page-1" id="RzzoXvsmsq_T2A-bgM_X">
    <mxGraphModel dx="1426" dy="1912" grid="1" gridSize="10" guides="1" tooltips="1" connect="1" arrows="1" fold="1" page="1" pageScale="1" pageWidth="827" pageHeight="1169" math="0" shadow="0">
      <root>
        <mxCell id="0" />
        <mxCell id="1" parent="0" />
        <mxCell id="4Ur8TzYngbyb2dsIORtj-1" value="&lt;span style=&quot;font-size: 16px;&quot;&gt;&lt;b&gt;Dispatch&lt;/b&gt;&lt;/span&gt;" style="html=1;whiteSpace=wrap;dashed=1;gradientColor=default;fillColor=none;labelPosition=center;verticalLabelPosition=middle;align=center;verticalAlign=top;" vertex="1" parent="1">
          <mxGeometry x="30" y="110" width="490" height="210" as="geometry" />
        </mxCell>
        <mxCell id="4Ur8TzYngbyb2dsIORtj-2" value="Week in Review&lt;div&gt;Widget&lt;/div&gt;" style="whiteSpace=wrap;html=1;align=center;fontSize=14;" vertex="1" parent="1">
          <mxGeometry x="80" y="190" width="170" height="50" as="geometry" />
        </mxCell>
        <mxCell id="4Ur8TzYngbyb2dsIORtj-5" style="edgeStyle=orthogonalEdgeStyle;rounded=0;orthogonalLoop=1;jettySize=auto;html=1;exitX=0;exitY=0.5;exitDx=0;exitDy=0;" edge="1" parent="1" source="4Ur8TzYngbyb2dsIORtj-3" target="4Ur8TzYngbyb2dsIORtj-2">
          <mxGeometry relative="1" as="geometry" />
        </mxCell>
        <mxCell id="4Ur8TzYngbyb2dsIORtj-9" style="edgeStyle=orthogonalEdgeStyle;rounded=0;orthogonalLoop=1;jettySize=auto;html=1;exitX=0.75;exitY=0;exitDx=0;exitDy=0;entryX=0;entryY=0.5;entryDx=0;entryDy=0;" edge="1" parent="1" source="4Ur8TzYngbyb2dsIORtj-3" target="4Ur8TzYngbyb2dsIORtj-6">
          <mxGeometry relative="1" as="geometry" />
        </mxCell>
        <mxCell id="4Ur8TzYngbyb2dsIORtj-3" value="Week in Review&amp;nbsp;&lt;div&gt;Widget Store&lt;/div&gt;" style="whiteSpace=wrap;html=1;align=center;fontSize=14;" vertex="1" parent="1">
          <mxGeometry x="300" y="190" width="170" height="50" as="geometry" />
        </mxCell>
        <mxCell id="4Ur8TzYngbyb2dsIORtj-4" value="&lt;span style=&quot;font-size: 16px;&quot;&gt;&lt;b&gt;Inbound&lt;/b&gt;&lt;/span&gt;" style="html=1;whiteSpace=wrap;dashed=1;gradientColor=default;fillColor=none;labelPosition=center;verticalLabelPosition=middle;align=center;verticalAlign=top;" vertex="1" parent="1">
          <mxGeometry x="500" y="-130" width="260" height="210" as="geometry" />
        </mxCell>
        <mxCell id="4Ur8TzYngbyb2dsIORtj-10" style="edgeStyle=orthogonalEdgeStyle;rounded=0;orthogonalLoop=1;jettySize=auto;html=1;exitX=1;exitY=0.5;exitDx=0;exitDy=0;entryX=0;entryY=0.5;entryDx=0;entryDy=0;" edge="1" parent="1" source="4Ur8TzYngbyb2dsIORtj-6" target="4Ur8TzYngbyb2dsIORtj-8">
          <mxGeometry relative="1" as="geometry" />
        </mxCell>
        <mxCell id="4Ur8TzYngbyb2dsIORtj-6" value="Get week in review counts&lt;br&gt;&lt;div&gt;Operational Data Controller&lt;/div&gt;" style="whiteSpace=wrap;html=1;align=center;fontSize=14;" vertex="1" parent="1">
          <mxGeometry x="520" y="-40" width="200" height="50" as="geometry" />
        </mxCell>
        <mxCell id="4Ur8TzYngbyb2dsIORtj-7" value="&lt;span style=&quot;font-size: 16px;&quot;&gt;&lt;b&gt;Database&lt;/b&gt;&lt;/span&gt;" style="html=1;whiteSpace=wrap;dashed=1;gradientColor=default;fillColor=none;labelPosition=center;verticalLabelPosition=middle;align=center;verticalAlign=top;" vertex="1" parent="1">
          <mxGeometry x="840" y="-130" width="260" height="210" as="geometry" />
        </mxCell>
        <mxCell id="4Ur8TzYngbyb2dsIORtj-8" value="Get week in review counts&lt;br&gt;&lt;div&gt;Stored procedure&lt;/div&gt;" style="whiteSpace=wrap;html=1;align=center;fontSize=14;" vertex="1" parent="1">
          <mxGeometry x="870" y="-40" width="200" height="50" as="geometry" />
        </mxCell>
      </root>
    </mxGraphModel>
  </diagram>
</mxfile>
